<?xml version="1.0" encoding="UTF-8" standalone="no"?>
<!-- Created with Inkscape (http://www.inkscape.org/) -->

<svg
   xmlns:dc="http://purl.org/dc/elements/1.1/"
   xmlns:cc="http://creativecommons.org/ns#"
   xmlns:rdf="http://www.w3.org/1999/02/22-rdf-syntax-ns#"
   xmlns:svg="http://www.w3.org/2000/svg"
   xmlns="http://www.w3.org/2000/svg"
   xmlns:sodipodi="http://sodipodi.sourceforge.net/DTD/sodipodi-0.dtd"
   xmlns:inkscape="http://www.inkscape.org/namespaces/inkscape"
   width="115.91231mm"
   height="40.113411mm"
   viewBox="0 0 115.91231 40.113411"
   version="1.1"
   id="svg8"
   inkscape:version="0.92.4 (5da689c313, 2019-01-14)"
   sodipodi:docname="lumi_logo.svg">
  <defs
     id="defs2" />
  <sodipodi:namedview
     id="base"
     pagecolor="#ffffff"
     bordercolor="#666666"
     borderopacity="1.0"
     inkscape:pageopacity="0.0"
     inkscape:pageshadow="2"
     inkscape:zoom="1.4"
     inkscape:cx="324.59218"
     inkscape:cy="113.29259"
     inkscape:document-units="mm"
     inkscape:current-layer="layer1"
     showgrid="false"
     fit-margin-top="0"
     fit-margin-left="0"
     fit-margin-right="0"
     fit-margin-bottom="0"
     inkscape:window-width="1215"
     inkscape:window-height="832"
     inkscape:window-x="256"
     inkscape:window-y="124"
     inkscape:window-maximized="0" />
  <metadata
     id="metadata5">
    <rdf:RDF>
      <cc:Work
         rdf:about="">
        <dc:format>image/svg+xml</dc:format>
        <dc:type
           rdf:resource="http://purl.org/dc/dcmitype/StillImage" />
        <dc:title></dc:title>
      </cc:Work>
    </rdf:RDF>
  </metadata>
  <g
     inkscape:label="Layer 1"
     inkscape:groupmode="layer"
     id="layer1"
     transform="translate(-46.276101,-86.661448)">
    <g
       aria-label="Lumi"
       style="font-style:normal;font-variant:normal;font-weight:normal;font-stretch:normal;font-size:10.58333302px;line-height:1.25;font-family:Georgia;-inkscape-font-specification:Georgia;letter-spacing:0px;word-spacing:0px;fill:#000000;fill-opacity:1;stroke:none;stroke-width:0.26458332"
       id="text3715">
      <path
         d="m 74.52864,115.68717 -0.744141,10.46758 H 46.276101 v -1.76114 q 0.595312,-0.0496 1.711523,-0.17363 1.141016,-0.12402 1.5875,-0.32246 0.744141,-0.32246 1.066602,-0.94258 0.347265,-0.62011 0.347265,-1.5875 V 96.16588 q 0,-0.843359 -0.297656,-1.488281 -0.272851,-0.644922 -1.116211,-1.041797 -0.570508,-0.297656 -1.612304,-0.570508 -1.016993,-0.297656 -1.686719,-0.347265 v -1.761133 h 14.858007 v 1.761133 q -0.694531,0.0248 -1.810742,0.248047 -1.091406,0.223242 -1.5875,0.396875 -0.843359,0.297656 -1.16582,1.016992 -0.297656,0.719336 -0.297656,1.53789 V 119.5567 q 0,1.63711 0.148828,2.55488 0.173633,0.89297 0.768945,1.38907 0.570508,0.44648 1.686719,0.59531 1.141016,0.12402 3.175,0.12402 0.917773,0 1.909961,-0.0496 0.992187,-0.0496 1.885156,-0.19844 0.868164,-0.14882 1.5875,-0.39687 0.744141,-0.27285 1.091406,-0.66973 1.016992,-1.14101 2.356446,-3.44785 1.364257,-2.33164 1.885156,-3.77031 z"
         style="font-size:50.79999924px;stroke-width:0.26458332"
         id="path17"
         inkscape:connector-curvature="0" />
      <path
         d="m 102.50833,125.70826 -7.962307,0.54571 -0.37207,-0.34727 v -3.10059 h -0.148829 q -0.595312,0.62012 -1.339453,1.33946 -0.74414,0.69453 -1.711523,1.26504 -1.116211,0.66972 -2.158008,1.01699 -1.041797,0.34726 -2.951758,0.34726 -3.249414,0 -4.960937,-2.10839 -1.686719,-2.13321 -1.686719,-6.17637 v -11.70781 q 0,-0.89297 -0.347265,-1.48828 Q 78.547,104.67389 77.902078,104.2274 77.455593,103.92975 76.785867,103.80572 76.11614,103.6569 75.372,103.60729 v -1.61231 l 8.160742,-0.59531 0.37207,0.34726 v 16.99122 q 0,2.6541 1.190625,3.99355 1.190625,1.33945 2.852539,1.33945 1.364258,0 2.430859,-0.42168 1.066602,-0.42168 1.785938,-0.99218 0.669726,-0.5209 1.16582,-1.09141 0.520899,-0.59531 0.79375,-1.09141 v -13.86582 q 0,-0.81855 -0.347265,-1.43867 -0.347266,-0.64492 -0.967383,-1.0914 -0.446485,-0.29766 -1.339453,-0.34727 -0.868164,-0.0744 -1.959571,-0.12402 v -1.61231 l 8.880078,-0.59531 0.372071,0.34726 V 121.169 q 0,0.84336 0.347265,1.43868 0.347266,0.59531 0.967385,1.01699 0.44648,0.27285 1.0666,0.37207 0.62012,0.0744 1.36426,0.0992 z"
         style="font-size:50.79999924px;stroke-width:0.26458332"
         id="path19"
         inkscape:connector-curvature="0" />
      <path
         d="m 147.45442,126.15475 h -11.93106 v -1.63711 q 0.57051,-0.0496 1.14102,-0.0992 0.59531,-0.0496 1.0418,-0.19844 0.69453,-0.22324 1.01699,-0.76894 0.34726,-0.57051 0.34726,-1.46348 v -12.62559 q 0,-2.57968 -1.19062,-3.96875 -1.16582,-1.41386 -2.92695,-1.41386 -1.21543,0 -2.28203,0.37207 -1.06661,0.37207 -1.95957,1.04179 -0.71934,0.54571 -1.21543,1.19063 -0.47129,0.62012 -0.71934,1.0418 v 14.11386 q 0,0.86817 0.29766,1.43867 0.29765,0.54571 1.01699,0.84336 0.57051,0.22325 1.01699,0.34727 0.47129,0.0992 1.21543,0.14883 v 1.63711 h -11.68301 v -1.63711 q 0.57051,-0.0496 1.09141,-0.0992 0.5457,-0.0496 0.99219,-0.19844 0.69453,-0.22324 1.01699,-0.76894 0.34726,-0.57051 0.34726,-1.46348 v -12.62559 q 0,-2.57968 -1.19062,-3.96875 -1.16582,-1.41386 -2.92695,-1.41386 -1.21543,0 -2.28204,0.39687 -1.0666,0.37207 -1.95957,1.0418 -0.71933,0.5457 -1.21543,1.24023 -0.49609,0.66973 -0.74414,1.017 v 14.01464 q 0,0.84336 0.34727,1.41387 0.34727,0.57051 1.0418,0.86816 0.52089,0.24805 1.0666,0.37207 0.5457,0.12403 1.21543,0.17364 v 1.63711 H 105.5593 v -1.63711 q 0.57051,-0.0496 1.16582,-0.0992 0.62012,-0.0496 1.0666,-0.19844 0.69454,-0.22324 1.017,-0.76894 0.34726,-0.57051 0.34726,-1.46348 v -15.20527 q 0,-0.79375 -0.37207,-1.41387 -0.34726,-0.64492 -0.99219,-1.09141 -0.47128,-0.29765 -1.16582,-0.47129 -0.69453,-0.19843 -1.43867,-0.24804 v -1.61231 l 8.18555,-0.5457 0.34726,0.34726 v 3.49747 h 0.17364 q 0.62011,-0.62012 1.51308,-1.46348 0.89297,-0.84336 1.66192,-1.36426 0.86816,-0.59531 2.15801,-0.99219 1.31464,-0.39687 2.82773,-0.39687 2.38125,0 4.09277,1.28984 1.71153,1.26504 2.45567,3.07578 0.89297,-0.86816 1.56269,-1.51308 0.69453,-0.66973 1.81074,-1.41387 0.94258,-0.64492 2.20762,-1.0418 1.28985,-0.39687 2.85254,-0.39687 3.10059,0 4.91133,2.03398 1.81074,2.03399 1.81074,6.25078 v 12.42715 q 0,0.86817 0.29766,1.43867 0.29765,0.54571 1.01699,0.84336 0.57051,0.22325 1.11621,0.34727 0.57051,0.0992 1.26504,0.14883 z"
         style="font-size:50.79999924px;stroke-width:0.26458332"
         id="path21"
         inkscape:connector-curvature="0" />
      <path
         d="m 162.18841,126.15475 h -11.83184 v -1.63711 c 0.38034,-0.0331 0.76895,-0.0661 1.16582,-0.0992 0.41341,-0.0331 0.76895,-0.0992 1.0666,-0.19844 0.46302,-0.14883 0.80202,-0.40514 1.01699,-0.76894 0.23151,-0.38034 0.34727,-0.86817 0.34727,-1.46348 v -15.10605 c 0,-0.52917 -0.12402,-1.00873 -0.37207,-1.43868 -0.23151,-0.44648 -0.56224,-0.81855 -0.99219,-1.11621 -0.31419,-0.19843 -0.76895,-0.3638 -1.36426,-0.49609 -0.59531,-0.14883 -1.14102,-0.23978 -1.63711,-0.27285 v -1.61231 l 8.63204,-0.5457 0.34726,0.34726 v 19.94297 c 0,0.57878 0.10749,1.05834 0.32246,1.43868 0.23151,0.38033 0.58705,0.66145 1.0666,0.84335 0.36381,0.14883 0.71934,0.27286 1.06661,0.37207 0.34726,0.0827 0.73587,0.14057 1.16582,0.17364 z"
         style="font-size:50.79999924px;stroke-width:0.26458332"
         id="path23"
         inkscape:connector-curvature="0"
         sodipodi:nodetypes="ccccccsscccccccsccccc" />
    </g>
    <path
       style="fill:#000000;stroke-width:0.10726354"
       d="m 153.97523,86.661448 a 6.0135654,6.0135654 0 0 0 -0.16781,0.0059 4.8216881,4.8216881 0 0 1 2.82258,4.382511 4.8216881,4.8216881 0 0 1 -4.82183,4.821623 4.8216881,4.8216881 0 0 1 -3.64717,-1.676831 6.0135654,6.0135654 0 0 0 5.81423,4.493965 6.0135654,6.0135654 0 0 0 6.01366,-6.013462 6.0135654,6.0135654 0 0 0 -6.01366,-6.013672 z"
       id="path11"
       inkscape:connector-curvature="0" />
  </g>
</svg>
